<svg width="48" height="48" version="1.1" xmlns="http://www.w3.org/2000/svg" desc="Created with imagetracer.js version 1.2.6" ><path fill="rgb(254,254,254)" stroke="rgb(254,254,254)" stroke-width="1" opacity="1" d="M 0 0 L 9.5 0 L 10 1.5 L 12.5 3 L 16.5 0 L 18.5 1 L 21 0 Q 19.9 2.7 22.5 2 L 22.5 0 Q 25.1 -0.7 24 2 L 27.5 2 L 30 3.5 L 27.5 4 L 24.5 3 L 20.5 4 L 19 3.5 Q 19.8 5.8 17.5 5 L 15.5 5 L 12 6.5 Q 13.1 10.7 9 9 L 8.5 5 L 8 8.5 L 3 16.5 L 2 26.5 L 5 33.5 L 2 37.5 L 3 40 Q 5.7 41.1 5 38.5 L 4 36.5 L 6 35.5 L 6.5 38 Q 7.8 35.8 9 38.5 L 7 39.5 L 11 40.5 L 8 41.5 L 12 44 Q 13.1 46.7 10.5 46 L 10.5 48 L 0 48 L 0 40.5 L 2 34.5 L 0 23.5 L 1 18.5 L 0 14.5 L 1 14.5 Q 0.3 17.1 3 16 Q 4 11.8 1 12.5 L 1 8.5 L 0 7.5 L 0 0 Z M 16 2 L 16 5 L 18 4 Q 19 1 16 2 Z M 3 8 L 3 11 L 6 9 L 3 8 Z " /><path fill="rgb(254,254,254)" stroke="rgb(254,254,254)" stroke-width="1" opacity="1" d="M 26.5 0 L 48 0 L 48 8 L 39.5 8 L 39 9.5 L 40.5 9 L 46 10 L 48 19.5 L 47 22.5 L 47 24.5 L 48 32.5 L 47 36 L 45 36 L 45 34 Q 42.3 35.1 43 32.5 Q 46.2 30 45 24 L 47 23.5 L 46 19.5 L 47 17.5 L 43 14.5 Q 43.8 12.3 41.5 13 L 36 8.5 L 37 4.5 L 35.5 3 L 26.5 1 L 26.5 0 Z " /><path fill="rgb(254,254,254)" stroke="rgb(254,254,254)" stroke-width="1" opacity="1" d="M 27.5 7 L 30 7.5 L 25.5 10 L 24 9.5 L 23 15 Q 27.1 13.3 26 17.5 L 26.5 19 Q 22.8 19.8 22 17.5 L 21 11.5 L 23 8 L 25.5 9 L 27.5 7 Z " /><path fill="rgb(254,254,254)" stroke="rgb(254,254,254)" stroke-width="1" opacity="1" d="M 32.5 8 L 37 13.5 L 37 15.5 L 34.5 20 L 33.5 19 L 30.5 22 L 26 20.5 Q 31.3 20.8 33.5 18 L 35 18.5 L 36 13.5 L 32 10.5 L 32.5 8 Z " /><path fill="rgb(254,254,254)" stroke="rgb(254,254,254)" stroke-width="1" opacity="1" d="M 30.5 14 Q 33.1 13.3 32 16 L 29 15.5 L 30.5 14 Z " /><path fill="rgb(254,254,254)" stroke="rgb(254,254,254)" stroke-width="1" opacity="1" d="M 42.5 35 Q 45.3 36.3 43 37.5 Q 42 41.3 45 40 Q 43.9 37.3 46.5 38 L 48 37.5 L 47 39.5 L 48 40.5 L 48 48 L 37.5 48 L 35.5 47 L 33.5 48 L 33.5 47 L 39 45 Q 40.3 42 36.5 43 Q 35.1 46.6 30 46.5 L 30.5 48 L 27 46.5 L 38 42 L 40 37 Q 42.8 38 42.5 35 Z M 40 45 L 38 47 L 40 47 L 40 45 Z " /><path fill="rgb(254,254,254)" stroke="rgb(254,254,254)" stroke-width="1" opacity="1" d="M 11.5 42 L 17.5 46 Q 23.6 44.9 26 47.5 L 24.5 48 L 22.5 48 L 17.5 47 L 15.5 48 L 15.5 47 L 17 46.5 L 11.5 43 L 11.5 42 Z " /><path fill="rgb(248,248,248)" stroke="rgb(248,248,248)" stroke-width="1" opacity="1" d="M 10.5 0 L 13.5 1 L 15 0.5 L 11.5 2 L 10.5 0 Z " /><path fill="rgb(248,248,248)" stroke="rgb(248,248,248)" stroke-width="1" opacity="1" d="M 21.5 0 L 22.5 2 Q 19.7 2.7 21.5 0 Z " /><path fill="rgb(248,248,248)" stroke="rgb(248,248,248)" stroke-width="1" opacity="1" d="M 16.5 2 Q 19.5 3.5 16.5 5 L 16.5 2 Z " /><path fill="rgb(248,248,248)" stroke="rgb(248,248,248)" stroke-width="1" opacity="1" d="M 30.5 2 L 36 4 L 37 7.5 L 35 8 L 33.5 5 L 31.5 4 L 28.5 5 L 28.5 4 L 31 3.5 L 30.5 2 Z " /><path fill="rgb(248,248,248)" stroke="rgb(248,248,248)" stroke-width="1" opacity="1" d="M 31.5 7 L 30.5 9 L 31.5 7 Z " /><path fill="rgb(248,248,248)" stroke="rgb(248,248,248)" stroke-width="1" opacity="1" d="M 0.5 8 Q -0.1 13 3 14.5 L 0 12.5 L 0.5 8 Z " /><path fill="rgb(248,248,248)" stroke="rgb(248,248,248)" stroke-width="1" opacity="1" d="M 33.5 8 L 32.5 10 L 33.5 8 Z " /><path fill="rgb(248,248,248)" stroke="rgb(248,248,248)" stroke-width="1" opacity="1" d="M 42.5 8 L 46 8.5 L 42.5 9 L 42.5 8 Z " /><path fill="rgb(248,248,248)" stroke="rgb(248,248,248)" stroke-width="1" opacity="1" d="M 39.5 9 L 39.5 12 Q 36.5 10.5 39.5 9 Z " /><path fill="rgb(248,248,248)" stroke="rgb(248,248,248)" stroke-width="1" opacity="1" d="M 47.5 10 L 48 13.5 L 47 13.5 L 47.5 10 Z " /><path fill="rgb(248,248,248)" stroke="rgb(248,248,248)" stroke-width="1" opacity="1" d="M 35.5 11 L 34.5 13 L 35.5 11 Z " /><path fill="rgb(248,248,248)" stroke="rgb(248,248,248)" stroke-width="1" opacity="1" d="M 5.5 12 L 4.5 14 L 5.5 12 Z " /><path fill="rgb(248,248,248)" stroke="rgb(248,248,248)" stroke-width="1" opacity="1" d="M 45.5 16 L 47 18.5 L 45 19.5 L 45.5 16 Z " /><path fill="rgb(248,248,248)" stroke="rgb(248,248,248)" stroke-width="1" opacity="1" d="M 0.5 19 L 1 21.5 L 0 21.5 L 0.5 19 Z " /><path fill="rgb(248,248,248)" stroke="rgb(248,248,248)" stroke-width="1" opacity="1" d="M 32.5 20 L 31.5 22 L 32.5 20 Z " /><path fill="rgb(248,248,248)" stroke="rgb(248,248,248)" stroke-width="1" opacity="1" d="M 47.5 24 L 48 27.5 L 47 27.5 L 47.5 24 Z " /><path fill="rgb(248,248,248)" stroke="rgb(248,248,248)" stroke-width="1" opacity="1" d="M 3.5 29 L 4.5 31 L 3.5 29 Z " /><path fill="rgb(248,248,248)" stroke="rgb(248,248,248)" stroke-width="1" opacity="1" d="M 0.5 33 L 1 36.5 L 0 36.5 L 0.5 33 Z " /><path fill="rgb(248,248,248)" stroke="rgb(248,248,248)" stroke-width="1" opacity="1" d="M 4.5 34 L 4 35.5 L 5 38.5 L 3 39.5 L 2 36.5 L 4.5 34 Z " /><path fill="rgb(248,248,248)" stroke="rgb(248,248,248)" stroke-width="1" opacity="1" d="M 42.5 34 L 45 34.5 L 44.5 36 L 46 36.5 L 44.5 37 L 42.5 34 Z " /><path fill="rgb(248,248,248)" stroke="rgb(248,248,248)" stroke-width="1" opacity="1" d="M 9.5 41 L 12 41.5 L 11.5 44 L 9 42.5 L 9.5 41 Z " /><path fill="rgb(248,248,248)" stroke="rgb(248,248,248)" stroke-width="1" opacity="1" d="M 36.5 43 L 36.5 46 Q 33.5 44.5 36.5 43 Z " /><path fill="rgb(248,248,248)" stroke="rgb(248,248,248)" stroke-width="1" opacity="1" d="M 13.5 46 L 14.5 48 L 13.5 46 Z " /><path fill="rgb(248,248,248)" stroke="rgb(248,248,248)" stroke-width="1" opacity="1" d="M 24.5 46 L 23.5 48 L 24.5 46 Z " /><path fill="rgb(248,248,248)" stroke="rgb(248,248,248)" stroke-width="1" opacity="1" d="M 30.5 46 L 33 46.5 Q 30.9 49.8 30.5 46 Z " /><path fill="rgb(188,188,188)" stroke="rgb(188,188,188)" stroke-width="1" opacity="1" d="M 24 4 L 27 5.5 L 24 7 L 24 4 Z " /><path fill="rgb(188,188,188)" stroke="rgb(188,188,188)" stroke-width="1" opacity="1" d="M 19.5 5 L 23 5.5 L 19.5 6 L 19.5 5 Z " /><path fill="rgb(188,188,188)" stroke="rgb(188,188,188)" stroke-width="1" opacity="1" d="M 16.5 6 L 18 6.5 L 15.5 8 L 16.5 6 Z " /><path fill="rgb(188,188,188)" stroke="rgb(188,188,188)" stroke-width="1" opacity="1" d="M 13.5 8 L 12.5 10 L 8.5 13 L 7.5 11 L 6 11.5 L 13.5 8 Z " /><path fill="rgb(188,188,188)" stroke="rgb(188,188,188)" stroke-width="1" opacity="1" d="M 35.5 8 L 42.5 17 L 44 16.5 L 41 18.5 L 37.5 11 L 36 11.5 L 35.5 8 Z " /><path fill="rgb(188,188,188)" stroke="rgb(188,188,188)" stroke-width="1" opacity="1" d="M 37.5 13 L 38 16.5 L 37 16.5 L 37.5 13 Z " /><path fill="rgb(188,188,188)" stroke="rgb(188,188,188)" stroke-width="1" opacity="1" d="M 34.5 16 L 33.5 18 L 34.5 16 Z " /><path fill="rgb(188,188,188)" stroke="rgb(188,188,188)" stroke-width="1" opacity="1" d="M 21.5 17 L 24.5 21 L 21.5 17 Z " /><path fill="rgb(188,188,188)" stroke="rgb(188,188,188)" stroke-width="1" opacity="1" d="M 3.5 24 L 4 26.5 L 3 26.5 L 3.5 24 Z " /><path fill="rgb(188,188,188)" stroke="rgb(188,188,188)" stroke-width="1" opacity="1" d="M 44.5 24 L 45 26.5 L 44 26.5 L 44.5 24 Z " /><path fill="rgb(188,188,188)" stroke="rgb(188,188,188)" stroke-width="1" opacity="1" d="M 6.5 34 L 7.5 36 L 6.5 34 Z " /><path fill="rgb(188,188,188)" stroke="rgb(188,188,188)" stroke-width="1" opacity="1" d="M 41.5 34 L 40.5 36 L 41.5 34 Z " /><path fill="rgb(188,188,188)" stroke="rgb(188,188,188)" stroke-width="1" opacity="1" d="M 8.5 37 L 9.5 39 L 8.5 37 Z " /><path fill="rgb(188,188,188)" stroke="rgb(188,188,188)" stroke-width="1" opacity="1" d="M 11.5 40 L 12.5 42 L 11.5 40 Z " /><path fill="rgb(188,188,188)" stroke="rgb(188,188,188)" stroke-width="1" opacity="1" d="M 36.5 40 L 35.5 42 L 36.5 40 Z " /><path fill="rgb(188,188,188)" stroke="rgb(188,188,188)" stroke-width="1" opacity="1" d="M 19.5 45 L 23 45.5 L 19.5 46 L 19.5 45 Z " /><path fill="rgb(188,188,188)" stroke="rgb(188,188,188)" stroke-width="1" opacity="1" d="M 24.5 45 L 29 45.5 L 24.5 46 L 24.5 45 Z " /><path fill="rgb(6,6,6)" stroke="rgb(6,6,6)" stroke-width="1" opacity="1" d="M 27.5 9 L 29 9.5 L 26 11.5 L 25.5 13 L 25 11.5 L 27.5 9 Z " /><path fill="rgb(6,6,6)" stroke="rgb(6,6,6)" stroke-width="1" opacity="1" d="M 15 10 Q 19.1 8.3 18 12.5 L 17.5 14 Q 20.5 14.9 19 10.5 L 20 10.5 Q 21.9 15.9 18.5 15 Q 17.3 17.3 16 14.5 L 15 10 Z " /><path fill="rgb(6,6,6)" stroke="rgb(6,6,6)" stroke-width="1" opacity="1" d="M 12 12 L 14 12.5 L 13 14.5 L 15 14.5 L 15 16 L 11 16 L 12 12 Z " /><path fill="rgb(6,6,6)" stroke="rgb(6,6,6)" stroke-width="1" opacity="1" d="M 29.5 13 L 29 14.5 L 28 16.5 L 31 17.5 L 28.5 18 L 27 14 L 29.5 13 Z " /><path fill="rgb(6,6,6)" stroke="rgb(6,6,6)" stroke-width="1" opacity="1" d="M 5.5 16 L 6 19 L 4 18.5 L 5.5 16 Z " /><path fill="rgb(6,6,6)" stroke="rgb(6,6,6)" stroke-width="1" opacity="1" d="M 39.5 16 L 40 17.5 L 39 19.5 L 41.5 21 Q 42.8 18.8 44 21.5 L 42 25.5 Q 44.5 27 41 28.5 Q 41.8 32.3 39.5 33 L 40 31.5 L 40 24.5 L 41.5 24 L 40.5 22 L 37.5 24 L 34 22.5 L 36 22 L 36.5 20 L 37.5 23 L 39 20.5 L 37.5 18 Q 40 18.7 39.5 16 Z " /><path fill="rgb(6,6,6)" stroke="rgb(6,6,6)" stroke-width="1" opacity="1" d="M 17.5 17 Q 19.8 16.3 19 18.5 L 18 21 Q 15 22.3 16 18.5 L 17.5 17 Z " /><path fill="rgb(6,6,6)" stroke="rgb(6,6,6)" stroke-width="1" opacity="1" d="M 7.5 18 L 8 19.5 L 6.5 23 L 6 20.5 L 7.5 18 Z " /><path fill="rgb(6,6,6)" stroke="rgb(6,6,6)" stroke-width="1" opacity="1" d="M 21.5 19 L 22.5 21 L 21 20.5 L 23 23.5 L 20.5 22 Q 17.9 22.7 19 20 L 21.5 19 Z " /><path fill="rgb(6,6,6)" stroke="rgb(6,6,6)" stroke-width="1" opacity="1" d="M 26.5 22 L 27 24 L 25 23.5 L 26.5 22 Z " /><path fill="rgb(6,6,6)" stroke="rgb(6,6,6)" stroke-width="1" opacity="1" d="M 7.5 24 L 8 26.5 L 7 26.5 L 7.5 24 Z " /><path fill="rgb(6,6,6)" stroke="rgb(6,6,6)" stroke-width="1" opacity="1" d="M 9.5 32 L 12.5 33 L 14.5 32 L 14 33.5 L 14.5 35 L 16 34.5 L 15.5 37 Q 13.3 36.3 14 38.5 L 14.5 40 L 11 39 L 11.5 37 Q 12.8 39.3 14 36.5 Q 14.7 33.9 12 35 L 12 33 L 10 33 L 11 35.5 L 9 36 Q 10.1 33.3 7.5 34 L 7.5 33 L 9.5 32 Z " /><path fill="rgb(6,6,6)" stroke="rgb(6,6,6)" stroke-width="1" opacity="1" d="M 34.5 33 Q 36.8 32.3 36 34.5 L 33 34.5 L 34.5 33 Z " /><path fill="rgb(6,6,6)" stroke="rgb(6,6,6)" stroke-width="1" opacity="1" d="M 38.5 34 L 39 36.5 L 37 35.5 L 38.5 34 Z " /><path fill="rgb(6,6,6)" stroke="rgb(6,6,6)" stroke-width="1" opacity="1" d="M 33.5 36 L 33 37.5 L 32.5 40 L 32 37.5 L 33.5 36 Z " /><path fill="rgb(6,6,6)" stroke="rgb(6,6,6)" stroke-width="1" opacity="1" d="M 35.5 37 L 37 39.5 L 34 39.5 L 35.5 37 Z " /><path fill="rgb(6,6,6)" stroke="rgb(6,6,6)" stroke-width="1" opacity="1" d="M 20.5 40 Q 22.8 39.3 22 41.5 L 23 44.5 L 22 44.5 L 20.5 42 L 18 41.5 L 20.5 40 Z " /><path fill="rgb(6,6,6)" stroke="rgb(6,6,6)" stroke-width="1" opacity="1" d="M 29.5 40 L 32 41.5 L 30.5 42 L 29.5 40 Z " /><path fill="rgb(6,6,6)" stroke="rgb(6,6,6)" stroke-width="1" opacity="1" d="M 24.5 41 L 27 41.5 L 24.5 42 L 24.5 41 Z " /><path fill="rgb(6,6,6)" stroke="rgb(6,6,6)" stroke-width="1" opacity="1" d="M 24.5 43 L 28 44.5 L 25.5 45 L 24.5 43 Z " /><path fill="rgb(0,0,0)" stroke="rgb(0,0,0)" stroke-width="1" opacity="1" d="M 30.5 10 L 32 12.5 L 30 13 L 30.5 10 Z " /><path fill="rgb(0,0,0)" stroke="rgb(0,0,0)" stroke-width="1" opacity="1" d="M 18.5 11 L 19 13.5 L 18 13.5 L 18.5 11 Z " /><path fill="rgb(0,0,0)" stroke="rgb(0,0,0)" stroke-width="1" opacity="1" d="M 7.5 13 L 9.5 16 Q 15.6 17.3 15 14.5 L 17 15.5 Q 14.5 17 16 22.5 L 17 22.5 L 19 17.5 Q 16.8 16.3 19.5 15 L 22.5 21 L 26 22.5 L 25.5 24 L 29.5 23 L 31.5 24 L 37 23 L 38 20.5 L 37.5 19 L 39 21.5 L 37.5 24 L 40.5 22 L 41 23.5 Q 38.3 25.2 40 31.5 L 41 31.5 L 41.5 28 L 42 31.5 L 40.5 34 L 39.5 32 L 37 35.5 L 38 37.5 Q 34.9 43.4 26.5 44 L 24.5 43 L 24.5 45 Q 21.9 45.8 23 42.5 L 22 40 L 18 41.5 L 21 42 Q 22.3 45 18.5 44 L 11 39.5 L 14 39 Q 15.3 36 11.5 37 L 10 37.5 L 11 35.5 L 10 33 L 12 32.5 L 8.5 32 Q 7.2 34.3 6 31.5 Q 7.3 25.8 4 24.5 L 4 22.5 L 4 19.5 Q 7 20.5 6 15.5 L 7.5 13 Z M 8 16 L 7 20 L 8 20 L 8 16 Z M 7 20 L 6 23 L 7 23 L 7 20 Z M 19 20 Q 18 23 21 22 Q 22 19 19 20 Z M 22 22 L 23 24 L 24 24 L 22 22 Z M 8 24 L 7 27 L 8 27 L 8 24 Z M 14 32 L 12 34 Q 11 36 14 35 L 15 33 L 14 32 Z M 35 33 L 33 37 L 36 35 Q 37 32 35 33 Z M 16 34 L 14 36 Q 13 38 16 37 L 16 34 Z M 33 37 L 32 40 L 35 40 L 33 39 L 33 37 Z M 30 40 L 25 41 L 25 42 L 32 42 L 30 40 Z " /><path fill="rgb(0,0,0)" stroke="rgb(0,0,0)" stroke-width="1" opacity="1" d="M 33.5 16 L 32.5 18 L 31 17.5 L 33.5 16 Z " /><path fill="rgb(0,0,0)" stroke="rgb(0,0,0)" stroke-width="1" opacity="1" d="M 43.5 19 L 44 20.5 L 42 21.5 L 43.5 19 Z " /><path fill="rgb(234,234,234)" stroke="rgb(234,234,234)" stroke-width="1" opacity="1" d="M 11.5 0 L 14 0.5 L 11.5 1 L 11.5 0 Z " /><path fill="rgb(234,234,234)" stroke="rgb(234,234,234)" stroke-width="1" opacity="1" d="M 19.5 4 L 21 4.5 L 18.5 6 L 19.5 4 Z " /><path fill="rgb(234,234,234)" stroke="rgb(234,234,234)" stroke-width="1" opacity="1" d="M 26.5 4 L 30.5 5 L 32.5 5 L 35 6.5 L 35 8 Q 31.3 6.5 32 9.5 L 31 9.5 L 32 7.5 L 26.5 7 L 24.5 8 L 24.5 7 L 27 5.5 L 26.5 4 Z " /><path fill="rgb(234,234,234)" stroke="rgb(234,234,234)" stroke-width="1" opacity="1" d="M 15.5 5 L 16 6.5 L 12.5 9 L 13 7.5 Q 12.3 5.3 14.5 6 L 15.5 5 Z " /><path fill="rgb(234,234,234)" stroke="rgb(234,234,234)" stroke-width="1" opacity="1" d="M 8.5 8 L 11 9.5 L 6.5 11 L 8.5 8 Z " /><path fill="rgb(234,234,234)" stroke="rgb(234,234,234)" stroke-width="1" opacity="1" d="M 22.5 8 L 23 9.5 L 21 10.5 L 22.5 8 Z " /><path fill="rgb(234,234,234)" stroke="rgb(234,234,234)" stroke-width="1" opacity="1" d="M 27.5 11 L 30 11.5 L 27 13 L 27.5 11 Z " /><path fill="rgb(234,234,234)" stroke="rgb(234,234,234)" stroke-width="1" opacity="1" d="M 20.5 12 L 22 14.5 L 20 13.5 L 20.5 12 Z " /><path fill="rgb(234,234,234)" stroke="rgb(234,234,234)" stroke-width="1" opacity="1" d="M 24.5 13 L 25.5 15 Q 22.7 15.7 24.5 13 Z " /><path fill="rgb(234,234,234)" stroke="rgb(234,234,234)" stroke-width="1" opacity="1" d="M 40.5 13 L 43 14.5 L 42.5 17 L 40.5 13 Z " /><path fill="rgb(234,234,234)" stroke="rgb(234,234,234)" stroke-width="1" opacity="1" d="M 1.5 14 L 4 17.5 L 3 17.5 Q 3.7 14.9 1 16 L 1.5 14 Z " /><path fill="rgb(234,234,234)" stroke="rgb(234,234,234)" stroke-width="1" opacity="1" d="M 35.5 14 L 37 16.5 L 35 15.5 L 35.5 14 Z " /><path fill="rgb(234,234,234)" stroke="rgb(234,234,234)" stroke-width="1" opacity="1" d="M 26.5 17 Q 30 19 25.5 21 L 24.5 19 L 27 18.5 L 26.5 17 Z " /><path fill="rgb(234,234,234)" stroke="rgb(234,234,234)" stroke-width="1" opacity="1" d="M 32.5 18 L 35 18.5 L 32.5 22 L 33 20.5 L 32.5 18 Z " /><path fill="rgb(234,234,234)" stroke="rgb(234,234,234)" stroke-width="1" opacity="1" d="M 45.5 20 L 46 23.5 L 45 23.5 L 45.5 20 Z " /><path fill="rgb(234,234,234)" stroke="rgb(234,234,234)" stroke-width="1" opacity="1" d="M 6.5 35 L 7.5 37 L 6.5 35 Z " /><path fill="rgb(234,234,234)" stroke="rgb(234,234,234)" stroke-width="1" opacity="1" d="M 41.5 35 L 40.5 37 L 41.5 35 Z " /><path fill="rgb(234,234,234)" stroke="rgb(234,234,234)" stroke-width="1" opacity="1" d="M 38.5 39 L 36.5 42 L 38.5 39 Z " /><path fill="rgb(234,234,234)" stroke="rgb(234,234,234)" stroke-width="1" opacity="1" d="M 37.5 43 L 38 45 L 33.5 47 L 33.5 46 L 37.5 43 Z " /><path fill="rgb(234,234,234)" stroke="rgb(234,234,234)" stroke-width="1" opacity="1" d="M 11.5 46 L 14 47.5 L 12.5 48 L 11.5 46 Z " /><path fill="rgb(31,31,31)" stroke="rgb(31,31,31)" stroke-width="1" opacity="1" d="M 18.5 7 Q 22.9 5.5 22 8.5 L 18.5 11 L 15 10 L 16 14 L 13.5 15 L 13 13.5 L 13.5 12 Q 11.3 11.3 12 13.5 L 11 16 L 8 14.5 L 11 12.5 Q 10.3 10.3 12.5 11 L 15 10 L 15.5 8 Q 17 10.5 18.5 7 Z " /><path fill="rgb(31,31,31)" stroke="rgb(31,31,31)" stroke-width="1" opacity="1" d="M 32.5 12 L 35 16 L 32.5 17 L 33.5 14 Q 30.7 14.7 32.5 12 Z " /><path fill="rgb(31,31,31)" stroke="rgb(31,31,31)" stroke-width="1" opacity="1" d="M 38.5 14 L 39 18 Q 41.7 16.9 41 19.5 L 44 18.5 L 40.5 21 Q 36.8 19 38.5 14 Z " /><path fill="rgb(31,31,31)" stroke="rgb(31,31,31)" stroke-width="1" opacity="1" d="M 5.5 15 L 5 16.5 L 4.5 18 L 4 16.5 L 5.5 15 Z " /><path fill="rgb(31,31,31)" stroke="rgb(31,31,31)" stroke-width="1" opacity="1" d="M 18.5 15 L 16.5 18 L 16 16 L 18.5 15 Z " /><path fill="rgb(31,31,31)" stroke="rgb(31,31,31)" stroke-width="1" opacity="1" d="M 20.5 17 L 21.5 19 L 20.5 17 Z " /><path fill="rgb(31,31,31)" stroke="rgb(31,31,31)" stroke-width="1" opacity="1" d="M 34.5 21 L 33.5 23 L 31.5 24 L 31 22 L 34.5 21 Z " /><path fill="rgb(31,31,31)" stroke="rgb(31,31,31)" stroke-width="1" opacity="1" d="M 44.5 21 L 45 22.5 L 43.5 26 L 43 22.5 L 44.5 21 Z " /><path fill="rgb(31,31,31)" stroke="rgb(31,31,31)" stroke-width="1" opacity="1" d="M 4.5 25 L 6 29.5 L 5 29.5 L 4.5 25 Z " /><path fill="rgb(31,31,31)" stroke="rgb(31,31,31)" stroke-width="1" opacity="1" d="M 39.5 33 L 40.5 35 Q 37.7 35.7 39.5 33 Z " /><path fill="rgb(31,31,31)" stroke="rgb(31,31,31)" stroke-width="1" opacity="1" d="M 34.5 34 L 35 36 L 33 35.5 L 34.5 34 Z " /><path fill="rgb(31,31,31)" stroke="rgb(31,31,31)" stroke-width="1" opacity="1" d="M 9.5 36 L 11 38.5 L 9 37.5 L 9.5 36 Z " /><path fill="rgb(31,31,31)" stroke="rgb(31,31,31)" stroke-width="1" opacity="1" d="M 39.5 36 L 37.5 39 L 39.5 36 Z " /><path fill="rgb(31,31,31)" stroke="rgb(31,31,31)" stroke-width="1" opacity="1" d="M 27.5 41 L 30 41.5 L 27.5 42 L 27.5 41 Z " /><path fill="rgb(31,31,31)" stroke="rgb(31,31,31)" stroke-width="1" opacity="1" d="M 33.5 41 L 32.5 43 L 33.5 41 Z " /><path fill="rgb(31,31,31)" stroke="rgb(31,31,31)" stroke-width="1" opacity="1" d="M 21.5 43 L 22 45 L 20 44.5 L 21.5 43 Z " /><path fill="rgb(253,253,253)" stroke="rgb(253,253,253)" stroke-width="1" opacity="1" d="M 29.5 1 L 28.5 3 L 29.5 1 Z " /><path fill="rgb(253,253,253)" stroke="rgb(253,253,253)" stroke-width="1" opacity="1" d="M 4.5 9 L 3.5 11 L 4.5 9 Z " /><path fill="rgb(253,253,253)" stroke="rgb(253,253,253)" stroke-width="1" opacity="1" d="M 12.5 43 L 14 46 L 12 45.5 L 12.5 43 Z " /><path fill="rgb(253,253,253)" stroke="rgb(253,253,253)" stroke-width="1" opacity="1" d="M 15.5 45 L 16.5 47 Q 13.7 47.7 15.5 45 Z " /><path fill="rgb(252,252,252)" stroke="rgb(252,252,252)" stroke-width="1" opacity="1" d="M 24 0 L 29 1.5 L 24 2 L 24 0 Z " /><path fill="rgb(252,252,252)" stroke="rgb(252,252,252)" stroke-width="1" opacity="1" d="M 10.5 1 L 11.5 3 L 10.5 1 Z " /><path fill="rgb(252,252,252)" stroke="rgb(252,252,252)" stroke-width="1" opacity="1" d="M 34.5 3 L 37 4.5 L 36.5 6 L 36 4 L 34.5 3 Z " /><path fill="rgb(252,252,252)" stroke="rgb(252,252,252)" stroke-width="1" opacity="1" d="M 8.5 5 L 9 7.5 L 8 7.5 L 8.5 5 Z " /><path fill="rgb(252,252,252)" stroke="rgb(252,252,252)" stroke-width="1" opacity="1" d="M 25.5 8 L 24.5 10 L 25.5 8 Z " /><path fill="rgb(252,252,252)" stroke="rgb(252,252,252)" stroke-width="1" opacity="1" d="M 44.5 9 L 47 10.5 L 46.5 12 L 46 10 L 44.5 9 Z " /><path fill="rgb(252,252,252)" stroke="rgb(252,252,252)" stroke-width="1" opacity="1" d="M 0.5 24 L 1 31.5 L 0 31.5 L 0.5 24 Z " /><path fill="rgb(108,108,108)" stroke="rgb(108,108,108)" stroke-width="1" opacity="1" d="M 23.5 5 L 24 8 L 18.5 7 L 16 8.5 Q 15.3 6.3 17.5 7 L 23.5 5 Z " /><path fill="rgb(108,108,108)" stroke="rgb(108,108,108)" stroke-width="1" opacity="1" d="M 14.5 8 L 15 10 L 11 11 L 9.5 14 L 8 13.5 L 14.5 8 Z " /><path fill="rgb(108,108,108)" stroke="rgb(108,108,108)" stroke-width="1" opacity="1" d="M 21.5 9 L 20.5 11 L 21.5 9 Z " /><path fill="rgb(108,108,108)" stroke="rgb(108,108,108)" stroke-width="1" opacity="1" d="M 26.5 9 Q 29.3 10.3 27 11.5 L 26.5 13 L 26 11.5 L 26.5 9 Z " /><path fill="rgb(108,108,108)" stroke="rgb(108,108,108)" stroke-width="1" opacity="1" d="M 30.5 9 L 32 11.5 L 31 11.5 L 30.5 10 L 29 10.5 L 30.5 9 Z " /><path fill="rgb(108,108,108)" stroke="rgb(108,108,108)" stroke-width="1" opacity="1" d="M 7.5 11 L 6.5 13 L 7.5 11 Z " /><path fill="rgb(108,108,108)" stroke="rgb(108,108,108)" stroke-width="1" opacity="1" d="M 37.5 11 L 41 17.5 L 40 17.5 L 37 12.5 L 37.5 11 Z " /><path fill="rgb(108,108,108)" stroke="rgb(108,108,108)" stroke-width="1" opacity="1" d="M 29.5 12 L 32 13.5 L 30.5 14 L 29.5 12 Z " /><path fill="rgb(108,108,108)" stroke="rgb(108,108,108)" stroke-width="1" opacity="1" d="M 33.5 12 L 34.5 14 L 33.5 12 Z " /><path fill="rgb(108,108,108)" stroke="rgb(108,108,108)" stroke-width="1" opacity="1" d="M 27.5 17 L 32 18.5 L 28.5 19 L 27.5 17 Z " /><path fill="rgb(108,108,108)" stroke="rgb(108,108,108)" stroke-width="1" opacity="1" d="M 43.5 17 L 41.5 20 L 43.5 17 Z " /><path fill="rgb(108,108,108)" stroke="rgb(108,108,108)" stroke-width="1" opacity="1" d="M 3.5 19 L 4 23.5 L 3 23.5 L 3.5 19 Z " /><path fill="rgb(108,108,108)" stroke="rgb(108,108,108)" stroke-width="1" opacity="1" d="M 36.5 19 L 35.5 21 L 36.5 19 Z " /><path fill="rgb(108,108,108)" stroke="rgb(108,108,108)" stroke-width="1" opacity="1" d="M 42.5 29 L 43 31.5 L 42 31.5 L 42.5 29 Z " /><path fill="rgb(108,108,108)" stroke="rgb(108,108,108)" stroke-width="1" opacity="1" d="M 5.5 30 L 8 34.5 L 6 33.5 L 5.5 30 Z " /><path fill="rgb(108,108,108)" stroke="rgb(108,108,108)" stroke-width="1" opacity="1" d="M 39.5 37 L 37.5 40 L 39.5 37 Z " /><path fill="rgb(108,108,108)" stroke="rgb(108,108,108)" stroke-width="1" opacity="1" d="M 34.5 41 L 33.5 43 L 34.5 41 Z " /><path fill="rgb(108,108,108)" stroke="rgb(108,108,108)" stroke-width="1" opacity="1" d="M 15.5 42 L 18 43 L 17.5 45 L 15.5 42 Z " /><path fill="rgb(250,250,250)" stroke="rgb(250,250,250)" stroke-width="1" opacity="1" d="M 46.5 8 L 47.5 10 Q 44.7 10.7 46.5 8 Z " /></svg>